<svg width="91" height="91" viewBox="0 0 91 91" fill="none" xmlns="http://www.w3.org/2000/svg">
<circle cx="45.5" cy="45.5" r="45.5" fill="white"/>
<path d="M65 41C64.337 41 63.7011 40.7366 63.2322 40.2678C62.7634 39.7989 62.5 39.163 62.5 38.5V33.5H27.5V38.5C27.5 39.163 27.2366 39.7989 26.7678 40.2678C26.2989 40.7366 25.663 41 25 41C24.337 41 23.7011 40.7366 23.2322 40.2678C22.7634 39.7989 22.5 39.163 22.5 38.5C21.837 38.5 21.2011 38.2366 20.7322 37.7678C20.2634 37.2989 20 36.663 20 36V26C20 25.337 20.2634 24.7011 20.7322 24.2322C21.2011 23.7634 21.837 23.5 22.5 23.5C22.5 22.837 22.7634 22.2011 23.2322 21.7322C23.7011 21.2634 24.337 21 25 21C25.663 21 26.2989 21.2634 26.7678 21.7322C27.2366 22.2011 27.5 22.837 27.5 23.5V28.5H62.5V23.5C62.5 22.837 62.7634 22.2011 63.2322 21.7322C63.7011 21.2634 64.337 21 65 21C65.663 21 66.2989 21.2634 66.7678 21.7322C67.2366 22.2011 67.5 22.837 67.5 23.5C68.163 23.5 68.7989 23.7634 69.2678 24.2322C69.7366 24.7011 70 25.337 70 26V36C70 36.663 69.7366 37.2989 69.2678 37.7678C68.7989 38.2366 68.163 38.5 67.5 38.5C67.5 39.163 67.2366 39.7989 66.7678 40.2678C66.2989 40.7366 65.663 41 65 41Z" fill="#2CA9BC"/>
<path d="M62.5 66V53.5C62.5 52.837 62.2366 52.2011 61.7678 51.7322C61.2989 51.2634 60.663 51 60 51H57.5V26C57.5 25.337 57.2366 24.7011 56.7678 24.2322C56.2989 23.7634 55.663 23.5 55 23.5C54.337 23.5 53.7011 23.7634 53.2322 24.2322C52.7634 24.7011 52.5 25.337 52.5 26V51H37.5V26C37.5 25.337 37.2366 24.7011 36.7678 24.2322C36.2989 23.7634 35.663 23.5 35 23.5C34.337 23.5 33.7011 23.7634 33.2322 24.2322C32.7634 24.7011 32.5 25.337 32.5 26V51H30C29.337 51 28.7011 51.2634 28.2322 51.7322C27.7634 52.2011 27.5 52.837 27.5 53.5V66C26.837 66 26.2011 66.2634 25.7322 66.7322C25.2634 67.2011 25 67.837 25 68.5C25 69.163 25.2634 69.7989 25.7322 70.2678C26.2011 70.7366 26.837 71 27.5 71H32.5C33.163 71 33.7989 70.7366 34.2678 70.2678C34.7366 69.7989 35 69.163 35 68.5C35 67.837 34.7366 67.2011 34.2678 66.7322C33.7989 66.2634 33.163 66 32.5 66V56H57.5V66C56.837 66 56.2011 66.2634 55.7322 66.7322C55.2634 67.2011 55 67.837 55 68.5C55 69.163 55.2634 69.7989 55.7322 70.2678C56.2011 70.7366 56.837 71 57.5 71H62.5C63.163 71 63.7989 70.7366 64.2678 70.2678C64.7366 69.7989 65 69.163 65 68.5C65 67.837 64.7366 67.2011 64.2678 66.7322C63.7989 66.2634 63.163 66 62.5 66Z" fill="black"/>
</svg>
