<svg width="91" height="91" viewBox="0 0 91 91" fill="none" xmlns="http://www.w3.org/2000/svg">
<circle cx="45.5" cy="45.5" r="45.5" fill="white"/>
<g clip-path="url(#clip0_194_2)">
<path d="M19.6197 52.2025C20.1168 53.3809 21.2679 54.1422 22.5524 54.1422C22.9752 54.1422 23.3879 54.059 23.779 53.894L41.1359 46.5746C41.3397 46.4889 41.5295 46.3835 41.7048 46.2622C41.8616 46.2387 42.0165 46.2032 42.1651 46.1409L57.0121 39.88L62.64 53.2248C62.9378 53.9321 63.6286 54.3892 64.3987 54.3892C64.6527 54.3892 64.9009 54.339 65.1352 54.24L66.4508 53.6851C66.9187 53.4882 67.2819 53.1194 67.4736 52.647C67.666 52.1746 67.6628 51.6571 67.466 51.1898L60.8038 35.3917L60.8032 35.3911L59.5225 32.3543C59.2248 31.647 58.534 31.1898 57.7638 31.1898C57.5098 31.1898 57.2616 31.24 57.0273 31.339L39.1092 38.8946C38.3409 39.219 37.9041 39.9917 37.9575 40.7809L21.2248 47.8375C20.4457 48.1657 19.8406 48.7797 19.52 49.5676C19.1994 50.3555 19.2044 51.2178 19.5327 51.9962L19.6197 52.2025Z" fill="black"/>
<path d="M68.1397 37.379C69.0019 37.379 69.8451 37.2076 70.6457 36.8705C72.2349 36.2 73.468 34.9517 74.1175 33.3536C74.767 31.7562 74.7562 30.0013 74.0857 28.4121C73.0737 26.0133 70.7378 24.4635 68.1333 24.4635C67.2711 24.4635 66.428 24.6343 65.6273 24.9721C62.3467 26.3555 60.8038 30.1498 62.1873 33.4305C63.1994 35.8292 65.5359 37.379 68.1397 37.379Z" fill="black"/>
<path d="M73.7302 54.9968H16.2698C15.5689 54.9968 15 55.5657 15 56.2667C15 56.9676 15.5689 57.5365 16.2698 57.5365H73.7302C74.4311 57.5365 75 56.9676 75 56.2667C75 55.5657 74.4311 54.9968 73.7302 54.9968Z" fill="black"/>
</g>
<defs>
<clipPath id="clip0_194_2">
<rect width="60" height="60" fill="white" transform="translate(15 11)"/>
</clipPath>
</defs>
</svg>
