<svg width="60" height="60" viewBox="0 0 60 60" fill="none" xmlns="http://www.w3.org/2000/svg">
<path d="M52.5 32.5H7.5C6.83696 32.5 6.20107 32.2366 5.73223 31.7678C5.26339 31.2989 5 30.663 5 30C5 29.337 5.26339 28.7011 5.73223 28.2322C6.20107 27.7634 6.83696 27.5 7.5 27.5H52.5C53.163 27.5 53.7989 27.7634 54.2678 28.2322C54.7366 28.7011 55 29.337 55 30C55 30.663 54.7366 31.2989 54.2678 31.7678C53.7989 32.2366 53.163 32.5 52.5 32.5Z" fill="white"/>
<path d="M17.5 20V40C17.5 40.663 17.2366 41.2989 16.7678 41.7678C16.2989 42.2366 15.663 42.5 15 42.5C14.337 42.5 13.7011 42.2366 13.2322 41.7678C12.7634 41.2989 12.5 40.663 12.5 40V37.5C12.5 38.163 12.2366 38.7989 11.7678 39.2678C11.2989 39.7366 10.663 40 10 40C9.33696 40 8.70107 39.7366 8.23223 39.2678C7.76339 38.7989 7.5 38.163 7.5 37.5V22.5C7.5 21.837 7.76339 21.2011 8.23223 20.7322C8.70107 20.2634 9.33696 20 10 20C10.663 20 11.2989 20.2634 11.7678 20.7322C12.2366 21.2011 12.5 21.837 12.5 22.5V20C12.5 19.337 12.7634 18.7011 13.2322 18.2322C13.7011 17.7634 14.337 17.5 15 17.5C15.663 17.5 16.2989 17.7634 16.7678 18.2322C17.2366 18.7011 17.5 19.337 17.5 20ZM50 20C49.337 20 48.7011 20.2634 48.2322 20.7322C47.7634 21.2011 47.5 21.837 47.5 22.5V20C47.5 19.337 47.2366 18.7011 46.7678 18.2322C46.2989 17.7634 45.663 17.5 45 17.5C44.337 17.5 43.7011 17.7634 43.2322 18.2322C42.7634 18.7011 42.5 19.337 42.5 20V40C42.5 40.663 42.7634 41.2989 43.2322 41.7678C43.7011 42.2366 44.337 42.5 45 42.5C45.663 42.5 46.2989 42.2366 46.7678 41.7678C47.2366 41.2989 47.5 40.663 47.5 40V37.5C47.5 38.163 47.7634 38.7989 48.2322 39.2678C48.7011 39.7366 49.337 40 50 40C50.663 40 51.2989 39.7366 51.7678 39.2678C52.2366 38.7989 52.5 38.163 52.5 37.5V22.5C52.5 21.837 52.2366 21.2011 51.7678 20.7322C51.2989 20.2634 50.663 20 50 20Z" fill="white"/>
</svg>
