<svg width="91" height="91" viewBox="0 0 91 91" fill="none" xmlns="http://www.w3.org/2000/svg">
<circle cx="45.5" cy="45.5" r="45.5" fill="white"/>
<path d="M67.5 47.5H22.5C21.837 47.5 21.2011 47.2366 20.7322 46.7678C20.2634 46.2989 20 45.663 20 45C20 44.337 20.2634 43.7011 20.7322 43.2322C21.2011 42.7634 21.837 42.5 22.5 42.5H67.5C68.163 42.5 68.7989 42.7634 69.2678 43.2322C69.7366 43.7011 70 44.337 70 45C70 45.663 69.7366 46.2989 69.2678 46.7678C68.7989 47.2366 68.163 47.5 67.5 47.5Z" fill="black"/>
<path d="M32.5 35V55C32.5 55.663 32.2366 56.2989 31.7678 56.7678C31.2989 57.2366 30.663 57.5 30 57.5C29.337 57.5 28.7011 57.2366 28.2322 56.7678C27.7634 56.2989 27.5 55.663 27.5 55V52.5C27.5 53.163 27.2366 53.7989 26.7678 54.2678C26.2989 54.7366 25.663 55 25 55C24.337 55 23.7011 54.7366 23.2322 54.2678C22.7634 53.7989 22.5 53.163 22.5 52.5V37.5C22.5 36.837 22.7634 36.2011 23.2322 35.7322C23.7011 35.2634 24.337 35 25 35C25.663 35 26.2989 35.2634 26.7678 35.7322C27.2366 36.2011 27.5 36.837 27.5 37.5V35C27.5 34.337 27.7634 33.7011 28.2322 33.2322C28.7011 32.7634 29.337 32.5 30 32.5C30.663 32.5 31.2989 32.7634 31.7678 33.2322C32.2366 33.7011 32.5 34.337 32.5 35ZM65 35C64.337 35 63.7011 35.2634 63.2322 35.7322C62.7634 36.2011 62.5 36.837 62.5 37.5V35C62.5 34.337 62.2366 33.7011 61.7678 33.2322C61.2989 32.7634 60.663 32.5 60 32.5C59.337 32.5 58.7011 32.7634 58.2322 33.2322C57.7634 33.7011 57.5 34.337 57.5 35V55C57.5 55.663 57.7634 56.2989 58.2322 56.7678C58.7011 57.2366 59.337 57.5 60 57.5C60.663 57.5 61.2989 57.2366 61.7678 56.7678C62.2366 56.2989 62.5 55.663 62.5 55V52.5C62.5 53.163 62.7634 53.7989 63.2322 54.2678C63.7011 54.7366 64.337 55 65 55C65.663 55 66.2989 54.7366 66.7678 54.2678C67.2366 53.7989 67.5 53.163 67.5 52.5V37.5C67.5 36.837 67.2366 36.2011 66.7678 35.7322C66.2989 35.2634 65.663 35 65 35Z" fill="#2CA9BC"/>
</svg>
