<svg width="85" height="30" viewBox="0 0 85 30" fill="none" xmlns="http://www.w3.org/2000/svg">
<path d="M12.104 29V17.084C12.104 16.076 11.792 15.308 11.168 14.78C10.568 14.228 9.752 13.952 8.72 13.952C7.736 13.952 6.86 14.144 6.092 14.528C5.324 14.912 4.604 15.512 3.932 16.328L0.8 13.304C1.952 12.104 3.236 11.18 4.652 10.532C6.092 9.884 7.652 9.56 9.332 9.56C10.868 9.56 12.2 9.8 13.328 10.28C14.48 10.76 15.368 11.48 15.992 12.44C16.616 13.4 16.928 14.612 16.928 16.076V29H12.104ZM6.884 29.36C5.684 29.36 4.592 29.12 3.608 28.64C2.648 28.16 1.88 27.5 1.304 26.66C0.752 25.796 0.476 24.788 0.476 23.636C0.476 22.652 0.656 21.788 1.016 21.044C1.376 20.276 1.904 19.652 2.6 19.172C3.32 18.668 4.208 18.284 5.264 18.02C6.344 17.756 7.592 17.624 9.008 17.624H14.624L14.3 21.044H8.936C8.36 21.044 7.844 21.092 7.388 21.188C6.956 21.284 6.584 21.44 6.272 21.656C5.984 21.872 5.756 22.124 5.588 22.412C5.444 22.7 5.372 23.036 5.372 23.42C5.372 23.828 5.48 24.188 5.696 24.5C5.912 24.812 6.2 25.052 6.56 25.22C6.944 25.388 7.376 25.472 7.856 25.472C8.552 25.472 9.212 25.352 9.836 25.112C10.484 24.872 11.06 24.536 11.564 24.104C12.068 23.672 12.464 23.18 12.752 22.628L13.724 25.184C13.22 26 12.608 26.72 11.888 27.344C11.168 27.968 10.388 28.46 9.548 28.82C8.708 29.18 7.82 29.36 6.884 29.36ZM29.8048 29.36C27.9808 29.36 26.3488 28.928 24.9088 28.064C23.4688 27.2 22.3288 26.024 21.4888 24.536C20.6728 23.024 20.2648 21.344 20.2648 19.496C20.2648 17.6 20.6728 15.908 21.4888 14.42C22.3288 12.908 23.4688 11.72 24.9088 10.856C26.3488 9.992 27.9808 9.56 29.8048 9.56C31.5088 9.56 33.0568 9.884 34.4488 10.532C35.8648 11.156 36.9688 12.02 37.7608 13.124L34.9888 16.508C34.6528 16.052 34.2328 15.632 33.7288 15.248C33.2248 14.864 32.6728 14.564 32.0728 14.348C31.4968 14.132 30.8968 14.024 30.2728 14.024C29.2888 14.024 28.4128 14.264 27.6448 14.744C26.8768 15.2 26.2768 15.848 25.8448 16.688C25.4128 17.504 25.1968 18.428 25.1968 19.46C25.1968 20.468 25.4248 21.38 25.8808 22.196C26.3368 23.012 26.9488 23.66 27.7168 24.14C28.4848 24.62 29.3368 24.86 30.2728 24.86C30.8968 24.86 31.4848 24.776 32.0368 24.608C32.6128 24.416 33.1408 24.14 33.6208 23.78C34.1008 23.42 34.5568 23 34.9888 22.52L37.7608 25.904C36.9688 26.936 35.8408 27.776 34.3768 28.424C32.9368 29.048 31.4128 29.36 29.8048 29.36ZM42.8725 29V5.132H47.9845V29H42.8725ZM39.3085 14.528V9.956H51.9085V14.528H39.3085ZM55.6364 29V9.956H60.7484V29H55.6364ZM58.1564 6.032C57.1724 6.032 56.4044 5.792 55.8524 5.312C55.3004 4.832 55.0244 4.148 55.0244 3.26C55.0244 2.444 55.3004 1.784 55.8524 1.28C56.4284 0.751998 57.2084 0.487998 58.1924 0.487998C59.1524 0.487998 59.9084 0.739998 60.4604 1.244C61.0124 1.724 61.2884 2.396 61.2884 3.26C61.2884 4.1 61.0124 4.772 60.4604 5.276C59.9084 5.78 59.1404 6.032 58.1564 6.032ZM72.2555 29L64.2635 9.956H69.8435L74.9195 24.104L73.7675 24.32L79.0955 9.956H84.5675L76.1795 29H72.2555Z" fill="#2C7E45"/>
</svg>