<svg width="91" height="91" viewBox="0 0 91 91" fill="none" xmlns="http://www.w3.org/2000/svg">
<circle cx="45.5" cy="45.5" r="45.5" fill="white"/>
<path d="M61.3333 62C60.7145 62 60.121 61.7542 59.6834 61.3166C59.2458 60.879 59 60.2855 59 59.6667V50.3333C59 49.7145 59.2458 49.121 59.6834 48.6834C60.121 48.2458 60.7145 48 61.3333 48C61.9522 48 62.5457 48.2458 62.9833 48.6834C63.4208 49.121 63.6667 49.7145 63.6667 50.3333V59.6667C63.6667 60.2855 63.4208 60.879 62.9833 61.3166C62.5457 61.7542 61.9522 62 61.3333 62ZM28.6667 62C28.0478 62 27.4543 61.7542 27.0168 61.3166C26.5792 60.879 26.3333 60.2855 26.3333 59.6667V50.3333C26.3333 49.7145 26.5792 49.121 27.0168 48.6834C27.4543 48.2458 28.0478 48 28.6667 48C29.2855 48 29.879 48.2458 30.3166 48.6834C30.7542 49.121 31 49.7145 31 50.3333V59.6667C31 60.2855 30.7542 60.879 30.3166 61.3166C29.879 61.7542 29.2855 62 28.6667 62Z" fill="#2CA9BC"/>
<path d="M63.6667 34H26.3333C25.0957 34 23.9087 34.4917 23.0335 35.3668C22.1583 36.242 21.6667 37.429 21.6667 38.6667V50.3333C21.6667 50.9522 21.9125 51.5457 22.3501 51.9832C22.7877 52.4208 23.3812 52.6667 24 52.6667H66C66.6188 52.6667 67.2123 52.4208 67.6499 51.9832C68.0875 51.5457 68.3333 50.9522 68.3333 50.3333V38.6667C68.3333 37.429 67.8417 36.242 66.9665 35.3668C66.0913 34.4917 64.9043 34 63.6667 34Z" fill="black"/>
</svg>
